<svg version="1.1" xmlns="http://www.w3.org/2000/svg" xmlns:xlink="http://www.w3.org/1999/xlink" width="1000" height="1000" viewBox="0,0,256,256"><g fill="#25384A" fill-rule="nonzero" stroke="none" stroke-width="1" stroke-linecap="butt" stroke-linejoin="miter" stroke-miterlimit="10" stroke-dasharray="" stroke-dashoffset="0" font-family="none" font-weight="none" font-size="none" text-anchor="none" style="mix-blend-mode: normal"><g transform="scale(8.53333,8.53333)" fill="#25384A"><path d="M14.98438,2.98633c-0.55152,0.00862 -0.99193,0.46214 -0.98437,1.01367v0.46484l-2.55469,1.70313c-0.367,0.245 -0.52839,0.69909 -0.40039,1.12109c0.126,0.421 0.51508,0.71094 0.95508,0.71094v3c-0.552,0 -1,0.448 -1,1h-1c-0.36064,-0.0051 -0.69608,0.18438 -0.87789,0.49587c-0.18181,0.3115 -0.18181,0.69676 0,1.00825c0.18181,0.3115 0.51725,0.50097 0.87789,0.49587h0.30078l-1.63672,9h-0.10156c-0.918,0 -1.71941,0.62562 -1.94141,1.51563l-0.60156,2.4043c0.322,0.046 0.64947,0.08008 0.98047,0.08008c2,0 4,-1 4,-1c0,0 2,1 4,1c2,0 4,-1 4,-1c0,0 2,1 4,1c0.331,0 0.65847,-0.03408 0.98047,-0.08008l-0.60156,-2.4043c-0.223,-0.89 -1.02341,-1.51562 -1.94141,-1.51562h-0.10156l-1.63672,-9h0.30078c0.36064,0.0051 0.69608,-0.18438 0.87789,-0.49587c0.18181,-0.3115 0.18181,-0.69676 0,-1.00825c-0.18181,-0.3115 -0.51725,-0.50097 -0.87789,-0.49587h-1c0,-0.552 -0.448,-1 -1,-1v-3c0.44,0 0.83003,-0.28994 0.95703,-0.71094c0.128,-0.422 -0.03634,-0.87609 -0.40234,-1.12109l-2.55469,-1.70312v-0.46484c0.0037,-0.2703 -0.10218,-0.53059 -0.29351,-0.72155c-0.19133,-0.19097 -0.45182,-0.29634 -0.72212,-0.29212zM14,8h2v3h-2zM12.33398,14h5.33203l1.63477,9h-2.30078v-2c0,-0.552 -0.448,-1 -1,-1c-0.552,0 -1,0.448 -1,1v2h-4.30078zM16,16c-0.55228,0 -1,0.44772 -1,1c0,0.55228 0.44772,1 1,1c0.55228,0 1,-0.44772 1,-1c0,-0.55228 -0.44772,-1 -1,-1z" fill="#25384A"></path></g></g></svg>